<svg width="68" height="97" viewBox="0 0 68 97" fill="none" xmlns="http://www.w3.org/2000/svg">
<path d="M9.40629 73.5037L9.40052 73.5085L9.39478 73.5133L3.15478 78.7933L2.44666 79.3925V80.3201V92.8001V94.8001H4.44666H63.7267H65.7267V92.8001V78.8801V76.8801H63.7267H33.7292C38.8595 72.4373 43.1628 68.5434 46.6339 65.2007L46.6408 65.1941L46.6476 65.1875C51.1024 60.8152 55.0474 55.7147 58.488 49.8984C62.0195 43.9285 63.8067 37.6192 63.8067 31.0001C63.8067 22.6385 61.2139 15.735 55.8951 10.5001C50.5316 5.1402 42.957 2.6001 33.4867 2.6001C24.7379 2.6001 17.356 5.22208 11.4992 10.5622L11.4937 10.5672L11.4883 10.5722C5.62404 15.9988 2.65973 23.8546 2.32777 33.8135L2.25888 35.8801H4.32666H20.6467H22.6125L22.6464 33.9146C22.7214 29.5635 23.7669 26.4115 25.5546 24.2266L25.5638 24.2153L25.5729 24.2039C27.2931 22.0377 29.7525 20.8801 33.2467 20.8801C36.8595 20.8801 39.1614 21.914 40.5859 23.6352C42.1185 25.4872 43.0067 28.1805 43.0067 31.9601C43.0067 35.9671 41.6513 40.1519 38.7737 44.544C35.8306 49.0363 32.1369 53.3967 27.6779 57.6218C23.1561 61.826 17.0691 67.118 9.40629 73.5037Z" stroke="#16A3CF" stroke-width="4"/>
</svg>
