<svg width="69" height="99" viewBox="0 0 69 99" fill="none" xmlns="http://www.w3.org/2000/svg">
<path d="M3.68443 29.4601L3.57944 31.56H5.68193H22.1219H23.9273L24.1115 29.764C24.39 27.0486 25.3772 24.9332 27.0161 23.2942C28.6243 21.6861 30.9776 20.76 34.3619 20.76C37.887 20.76 40.2329 21.6389 41.7369 23.0828L41.751 23.0963L41.7654 23.1096C43.3487 24.5711 44.2419 26.6684 44.2419 29.68C44.2419 32.9004 43.0857 35.0853 40.8698 36.5677C38.5117 38.1453 34.722 39.08 29.2019 39.08H25.7219H23.7219V41.08V54.88V56.88H25.7219H29.2019C35.4619 56.88 39.6908 57.9115 42.2326 59.6506C44.5667 61.2477 45.9219 63.9576 45.9219 68.32C45.9219 71.4673 44.96 73.9083 43.1231 75.8108L43.1222 75.8117C41.4463 77.5497 38.9155 78.56 35.2019 78.56C31.1734 78.56 28.2275 77.5091 26.1292 75.6199C24.0842 73.6291 22.9419 70.9878 22.8003 67.5184L22.722 65.6H20.8019H4.48193H2.40856L2.48323 67.672C2.81914 76.9935 5.99825 84.3167 12.2299 89.3196C18.3438 94.2279 26.1793 96.6 35.5619 96.6C41.7872 96.6 47.2248 95.5214 51.8028 93.2756L51.8096 93.2722L51.8164 93.2688C56.4414 90.9563 59.9903 87.7427 62.3681 83.6102C64.8047 79.5145 66.0019 74.8788 66.0019 69.76C66.0019 63.7017 64.6125 58.5462 61.6755 54.446C59.6152 51.4884 56.9495 49.198 53.7193 47.5687C56.1204 46.1273 58.2416 44.1521 60.0838 41.6775C63.019 37.7627 64.4419 33.0459 64.4419 27.64C64.4419 22.9058 63.2771 18.6189 60.91 14.8393C58.6061 10.9514 55.1757 7.94799 50.7225 5.80418C46.2259 3.55913 40.9087 2.47998 34.8419 2.47998C25.9329 2.47998 18.5234 4.77583 12.8027 9.54257C7.09327 14.2864 4.10672 21.0142 3.68443 29.4601Z" stroke="#16A3CF" stroke-width="4"/>
</svg>
