<svg width="71" height="96" viewBox="0 0 71 96" fill="none" xmlns="http://www.w3.org/2000/svg">
<path d="M60.5467 21.0398H62.5467V19.0398V4.27979V2.27979H60.5467H6.3067H4.3067V4.27979V55.6398V57.6398H6.3067H22.3867H23.8153L24.2786 56.2884C25.1164 53.8449 26.4863 51.9451 28.3867 50.5198C30.2155 49.1482 32.5704 48.3998 35.5867 48.3998C39.9346 48.3998 42.8779 49.6053 44.7868 51.7051L44.8082 51.7286L44.8302 51.7514C46.8272 53.8128 47.9867 56.9933 47.9867 61.6398C47.9867 66.192 46.8715 69.6263 44.8332 72.1402C42.9023 74.5216 39.9816 75.8398 35.7067 75.8398C32.1269 75.8398 29.3393 74.9695 27.1991 73.369C25.1115 71.7487 23.7597 69.6043 23.1379 66.8408L22.7867 65.2798H21.1867H4.8667H2.6615L2.8762 67.4745C3.64482 75.3315 6.96229 81.7808 12.8219 86.6925C18.7143 91.6318 26.4934 93.9998 35.9467 93.9998C46.022 93.9998 54.0536 91.0728 59.7272 84.9661C65.4199 78.9253 68.1867 71.001 68.1867 61.3998C68.1867 56.1881 67.219 51.282 65.2693 46.7021C63.2749 41.936 60.0612 38.0386 55.6784 35.0308C51.1799 31.9435 45.513 30.4798 38.8267 30.4798C35.0488 30.4798 31.4625 31.2098 28.0876 32.6777C26.456 33.3485 24.9777 34.1338 23.6667 35.0408V21.0398H60.5467Z" stroke="#16A3CF" stroke-width="4"/>
</svg>
