<svg width="30" height="30" viewBox="0 0 30 30" fill="none" xmlns="http://www.w3.org/2000/svg">
<path d="M22.4584 0H7.51784C3.37827 0 0 3.38095 0 7.52381V22.5C0 26.619 3.37827 30 7.51784 30H22.4822C26.6217 30 30 26.619 30 22.4762V7.52381C29.9762 3.38095 26.5979 0 22.4584 0ZM22.4346 11.2381C22.4346 11.4048 22.4346 11.5714 22.4346 11.7381C22.4346 16.7381 18.5805 22.5 11.5147 22.5C9.34972 22.5 7.32752 21.881 5.63838 20.8095C5.94766 20.8333 6.23315 20.8571 6.54243 20.8571C8.35052 20.8571 9.99207 20.2619 11.3006 19.2381C9.61142 19.2143 8.20777 18.119 7.70817 16.619C7.94607 16.6667 8.18398 16.6905 8.42189 16.6905C8.77875 16.6905 9.13561 16.6429 9.44489 16.5476C7.73196 16.1905 6.42347 14.6667 6.42347 12.8333V12.7857C6.89929 13.0714 7.51784 13.2381 8.1364 13.2619C7.1134 12.5952 6.42347 11.4286 6.42347 10.119C6.42347 9.42857 6.6138 8.78571 6.94687 8.21429C8.85012 10.5 11.6574 12 14.8454 12.1667C14.774 11.881 14.7502 11.5952 14.7502 11.3095C14.7502 9.21429 16.4631 7.52381 18.5805 7.52381C19.6749 7.52381 20.6741 7.97619 21.3878 8.71429C22.268 8.54762 23.0769 8.2381 23.8144 7.78571C23.5289 8.66667 22.9104 9.40476 22.1253 9.88095C22.9104 9.78571 23.6479 9.59524 24.3378 9.28571C23.8144 10.0476 23.1721 10.7143 22.4346 11.2381Z" fill="#E3E3E3"/>
</svg>
