<svg width="48" height="16" viewBox="0 0 48 16" fill="none" xmlns="http://www.w3.org/2000/svg">
<path d="M19.1532 0.798828L16.7222 15.0648H20.6102L23.0432 0.798828H19.1532Z" fill="#E3E3E3"/>
<path d="M13.4618 0.814524L9.65382 10.5435L9.24782 9.07452C8.49682 7.30452 6.36482 4.76252 3.86182 3.16052L7.34382 15.0575L11.4578 15.0505L17.5808 0.811523L13.4618 0.814524Z" fill="#E3E3E3"/>
<path d="M7.772 1.83576C7.546 0.966758 6.891 0.707758 6.078 0.676758H0.05L0 0.960758C4.691 2.09876 7.795 4.84076 9.083 8.13776L7.772 1.83576Z" fill="#E3E3E3"/>
<path d="M30.923 3.53371C32.195 3.51371 33.117 3.79171 33.833 4.07971L34.184 4.24471L34.71 1.15271C33.94 0.86371 32.733 0.553711 31.227 0.553711C27.385 0.553711 24.677 2.48871 24.656 5.26171C24.631 7.31071 26.585 8.45471 28.061 9.13771C29.576 9.83771 30.084 10.2827 30.077 10.9077C30.065 11.8627 28.869 12.3007 27.752 12.3007C26.195 12.3007 25.368 12.0857 24.091 11.5537L23.59 11.3257L23.043 14.5187C23.953 14.9177 25.632 15.2607 27.375 15.2787C31.462 15.2787 34.118 13.3667 34.146 10.4037C34.163 8.78271 33.126 7.54571 30.879 6.53071C29.519 5.86871 28.687 5.42871 28.695 4.76071C28.695 4.16771 29.401 3.53371 30.923 3.53371Z" fill="#E3E3E3"/>
<path d="M44.688 0.81543H41.684C40.751 0.81543 40.057 1.06943 39.647 1.99943L33.874 15.0734H37.957C37.957 15.0734 38.623 13.3154 38.774 12.9304C39.221 12.9304 43.188 12.9364 43.753 12.9364C43.869 13.4344 44.227 15.0734 44.227 15.0734H47.834L44.688 0.81543ZM39.893 10.0104C40.213 9.19143 41.442 6.02343 41.442 6.02343C41.421 6.06243 41.759 5.19843 41.96 4.66143L42.222 5.89143C42.222 5.89143 42.967 9.29743 43.123 10.0104H39.893Z" fill="#E3E3E3"/>
</svg>
